# xmcd
#
# Track frame offsets: 
#        150
#        19815
#        38914
#        58901
#        77387
#        100369
#        120968
#        154089
#
# Disc length: 4440 seconds
#
# Revision: 0
# Processed by: cddbd v1.5.1PL2 Copyright (c) Steve Scherf et al.
# Submitted via: ExactAudioCopy v0.95b3
#
DISCID=59115608
DTITLE=Little Beaver - When Was The Last Time
DYEAR=1976
DGENRE=Funk
TTITLE0=Listen To My Heartbeat
TTITLE1=We Three
TTITLE2=I Like The Way You Do Your Thing
TTITLE3=I Really Love You Babe
TTITLE4=Concrete Jungle
TTITLE5=Pretty Little Girl
TTITLE6=When Was The Last Time
TTITLE7=Multimedia
EXTD=
EXTT0=
EXTT1=
EXTT2=
EXTT3=
EXTT4=
EXTT5=
EXTT6=
EXTT7=
PLAYORDER=
